<svg xmlns="http://www.w3.org/2000/svg" viewBox="0 0 144.37 101.43"><defs><style>.cls-1{font-size:19.53px;fill:#fff;font-family:Roboto-Bold, Roboto;font-weight:700;}.cls-2{letter-spacing:0.01em;}.cls-3{letter-spacing:-0.01em;}.cls-4,.cls-5,.cls-6{font-family:Roboto-Light, Roboto;font-weight:300;}.cls-5{letter-spacing:-0.07em;}.cls-6{letter-spacing:-0.01em;}.cls-7{fill:#4cd2ff;}.cls-8{fill:#ba47ff;}</style></defs><g id="Camada_2" data-name="Camada 2"><g id="OBJECTS"><text class="cls-1" transform="translate(0 96.14)">P<tspan class="cls-2" x="12.6" y="0">E</tspan><tspan x="23.78" y="0">T</tspan><tspan class="cls-3" x="35.86" y="0">I</tspan><tspan x="41.28" y="0">T</tspan><tspan class="cls-4" x="53.36" y="0">COM</tspan><tspan class="cls-5" x="96.17" y="0">P</tspan><tspan class="cls-4" x="106.88" y="0">A</tspan><tspan class="cls-6" x="119.08" y="0">N</tspan><tspan class="cls-4" x="132.68" y="0">Y</tspan></text><path class="cls-7" d="M50.3,34.05V26.12A4.08,4.08,0,0,0,54.37,22V12a12,12,0,0,1,12-12h2.92V7.94H66.39A4.08,4.08,0,0,0,62.31,12V22A12,12,0,0,1,50.3,34.05Z"/><path class="cls-7" d="M69.31,60.17H66.39a12,12,0,0,1-12-12v-10a4.08,4.08,0,0,0-4.07-4.08V26.12a12,12,0,0,1,12,12v10a4.08,4.08,0,0,0,4.08,4.08h2.92Z"/><path class="cls-7" d="M94.07,34.05V26.12A4.08,4.08,0,0,1,90,22V12A12,12,0,0,0,78,0H75.06V7.94H78A4.08,4.08,0,0,1,82.06,12V22A12,12,0,0,0,94.07,34.05Z"/><path class="cls-7" d="M75.06,60.17H78a12,12,0,0,0,12-12v-10a4.08,4.08,0,0,1,4.07-4.08V26.12a12,12,0,0,0-12,12v10A4.08,4.08,0,0,1,78,52.23H75.06Z"/><path class="cls-8" d="M50.92,52.23H47.37a4.08,4.08,0,0,1-4.07-4.08v-10a12,12,0,0,0-3.12-8.05,12,12,0,0,0,3.12-8V12a4.07,4.07,0,0,1,4.07-4.07h3.55A16.11,16.11,0,0,1,55.84,0H47.37a12,12,0,0,0-12,12V22a4.08,4.08,0,0,1-4.08,4.08v7.93a4.08,4.08,0,0,1,4.08,4.08v10a12,12,0,0,0,12,12h8.47A16.11,16.11,0,0,1,50.92,52.23Z"/><path class="cls-8" d="M109,22V12A12,12,0,0,0,97,0H88.53a16,16,0,0,1,4.92,7.94H97A4.07,4.07,0,0,1,101.07,12V22a12,12,0,0,0,3.12,8,12,12,0,0,0-3.12,8.05v10A4.08,4.08,0,0,1,97,52.23H93.45a16,16,0,0,1-4.92,7.94H97a12,12,0,0,0,12-12v-10a4.08,4.08,0,0,1,4.08-4.08V26.12A4.08,4.08,0,0,1,109,22Z"/></g></g></svg>